<?xml version="1.0" encoding="UTF-8"?>
<svg data-name="Layer 1" viewBox="0 0 493.03 312.22" xmlns="http://www.w3.org/2000/svg">
<defs>
<style>.cls-1{fill:#a4343a;}.cls-2{fill:#fff;}</style>
</defs>
<path class="cls-1" transform="translate(-77.48 -59.89)" d="M567.59,151.43c20.8,78.48-71.4,171-205.92,206.66s-260.46,1-281.26-77.52,71.39-171,205.92-206.66S546.79,73,567.59,151.43Z"/>
<path class="cls-2" transform="translate(-77.48 -59.89)" d="M523.22,119.18a1.73,1.73,0,0,1,.73.29,2,2,0,0,1,.46.46,1.58,1.58,0,0,1,.3.64,1.84,1.84,0,0,1,0,1,1.29,1.29,0,0,1-.59.83,1.31,1.31,0,0,1,.77.34,2.26,2.26,0,0,1,.45,1l.12.43a3.69,3.69,0,0,0,.19.59.54.54,0,0,0,.35.3l0,.16-1.48.4c-.08-.13-.14-.24-.18-.32a4.33,4.33,0,0,1-.21-.54l-.17-.6a1.26,1.26,0,0,0-.43-.76,1.12,1.12,0,0,0-.82,0l-1.31.35.67,2.52-1.31.36-1.72-6.44,3.07-.82A2.89,2.89,0,0,1,523.22,119.18Zm-2.52,1.7.46,1.73,1.45-.39a1.64,1.64,0,0,0,.62-.28.75.75,0,0,0,.19-.82.86.86,0,0,0-.58-.69,1.44,1.44,0,0,0-.66,0Z"/>
<path class="cls-2" transform="translate(-77.48 -59.89)" d="m524.43 129.59a7.2 7.2 0 1 1 5.1-8.82 7.21 7.21 0 0 1-5.1 8.82zm-3.43-12.86a6.11 6.11 0 1 0 7.48 4.32 6.1 6.1 0 0 0-7.48-4.32z"/>
<path class="cls-2" transform="translate(-77.48 -59.89)" d="M178.58,212.28c-7.94,2.13-14.77-2.19-16.52-8.73l-4-15a.77.77,0,0,0-1-.59l-1.32.36a1.52,1.52,0,0,1-2.05-1.18l-.91-3.39a1.52,1.52,0,0,1,1.18-2.05l1.33-.36a.76.76,0,0,0,.59-1l-2-7.28a1.52,1.52,0,0,1,1.18-2.05l4.64-1.25a1.53,1.53,0,0,1,2.05,1.19l1.95,7.28a.76.76,0,0,0,1,.59l7.8-2.09a1.52,1.52,0,0,1,2,1.19l.91,3.38a1.53,1.53,0,0,1-1.19,2l-7.79,2.09a.77.77,0,0,0-.6,1l4,15a5.43,5.43,0,0,0,6.79,3.86,6.08,6.08,0,0,0,3.82-3.39,1.92,1.92,0,0,1,2.65-1l3.66,1.3a1.81,1.81,0,0,1,.8,2.39A13.21,13.21,0,0,1,178.58,212.28Z"/>
<path class="cls-2" transform="translate(-77.48 -59.89)" d="M218.47,200.81l-4.63,1.24a1.52,1.52,0,0,1-2.05-1.19l-5.58-20.81a5.56,5.56,0,0,0-10.74,2.88l5.58,20.81a1.53,1.53,0,0,1-1.19,2L195.23,207a1.53,1.53,0,0,1-2-1.19L181,160.55a1.53,1.53,0,0,1,1.18-2.06l4.64-1.24a1.53,1.53,0,0,1,2,1.19l3.27,12.21c.18.66.59.71,1.14.4a14.8,14.8,0,0,1,4.23-1.84c7.94-2.13,14.78,2.19,16.53,8.73l5.58,20.81A1.54,1.54,0,0,1,218.47,200.81Z"/>
<path class="cls-2" transform="translate(-77.48 -59.89)" d="M148,313.06c-16.26,4.35-30.24-4.48-33.83-17.88l-6-22.27c-3.58-13.4,4.11-28,20.36-32.4,13.4-3.59,23.88,1.83,28.72,8.44.73.93,1.78,3.07.3,4.76l-5.82,6.56c-1.37,1.49-3.22,1.83-4.72.45-4.15-4.05-8-7.68-14.65-5.91a11.09,11.09,0,0,0-8.08,13.78l6,22.28a11.09,11.09,0,0,0,13.89,7.89c6.62-1.77,8.16-6.87,9.73-12.45.61-1.94,2.38-2.57,4.31-2l8.32,2.78c2.13.72,2.29,3.09,2.12,4.27C167.76,299.53,161.39,309.47,148,313.06Z"/>
<path class="cls-2" transform="translate(-77.48 -59.89)" d="M235.64,288l-5.87,1.57a3.13,3.13,0,0,1-3.07-.63,1.53,1.53,0,0,0-2.27,0,27.06,27.06,0,0,1-12.17,7C196,300.19,182,291.36,178.44,278L167,235.37a3.12,3.12,0,0,1,2.43-4.2l9.48-2.54a3.12,3.12,0,0,1,4.2,2.42l11.41,42.6a11.38,11.38,0,0,0,22-5.89l-11.42-42.6a3.13,3.13,0,0,1,2.43-4.2l9.48-2.54a3.12,3.12,0,0,1,4.2,2.43l16.85,62.91A3.11,3.11,0,0,1,235.64,288Z"/>
<path class="cls-2" transform="translate(-77.48 -59.89)" d="M285.64,218.1c-.68,2.28-2.36,3.22-4.45,2.65-6.84-2-12.59-2.44-18.31-.9a11.08,11.08,0,0,0-8.08,13.78l11.41,42.59a3.13,3.13,0,0,1-2.42,4.2L254.3,283a3.11,3.11,0,0,1-4.19-2.43l-11.42-42.59c-3.59-13.39,4.1-28,20.36-32.39,10.23-2.74,20.65-1.18,26.33,1.33a3.67,3.67,0,0,1,2.19,4.57Z"/>
<path class="cls-2" transform="translate(-77.48 -59.89)" d="M343.88,202.49c-.67,2.28-2.36,3.22-4.45,2.65-6.84-2-12.59-2.43-18.31-.9A11.09,11.09,0,0,0,313,218l11.42,42.59a3.12,3.12,0,0,1-2.43,4.2l-9.48,2.54a3.12,3.12,0,0,1-4.2-2.42l-11.41-42.59c-3.59-13.4,4.1-28,20.35-32.4,10.24-2.74,20.66-1.18,26.33,1.34a3.65,3.65,0,0,1,2.19,4.57Z"/>
<path class="cls-2" transform="translate(-77.48 -59.89)" d="m483.67 221.5-9.48 2.5a3.12 3.12 0 0 1-4.2-2.42l-11.41-42.58a11.37 11.37 0 0 0-22 5.88l11.42 42.62a3.12 3.12 0 0 1-2.43 4.2l-9.48 2.54a3.12 3.12 0 0 1-4.2-2.42l-16.85-62.91a3.11 3.11 0 0 1 2.42-4.2l5.87-1.58a3.13 3.13 0 0 1 3.07 0.64 1.53 1.53 0 0 0 2.27 0 27.06 27.06 0 0 1 12.17-7c16.25-4.35 30.23 4.49 33.82 17.88l11.41 42.59a3.11 3.11 0 0 1-2.4 4.26z"/>
<path class="cls-2" transform="translate(-77.48 -59.89)" d="M529.83,210.74c-16.26,4.36-30.24-4.47-33.83-17.87l-8.22-30.7a1.56,1.56,0,0,0-2.11-1.21l-2.71.72a3.12,3.12,0,0,1-4.2-2.42l-1.85-6.93a3.12,3.12,0,0,1,2.42-4.2l2.71-.72a1.56,1.56,0,0,0,1.22-2.1l-4-14.9a3.11,3.11,0,0,1,2.42-4.2l9.48-2.54a3.12,3.12,0,0,1,4.2,2.42l4,14.9a1.55,1.55,0,0,0,2.09,1.21l15.95-4.27a3.13,3.13,0,0,1,4.21,2.42l1.85,6.93a3.12,3.12,0,0,1-2.43,4.2l-15.95,4.27a1.57,1.57,0,0,0-1.21,2.1l8.23,30.7a11.09,11.09,0,0,0,13.89,7.9c3.76-1,6-3.54,7.82-6.94,1.28-2.44,3.09-2.92,5.4-2.09l7.5,2.67c2,.76,2.32,3.25,1.63,4.88A27,27,0,0,1,529.83,210.74Z"/>
<path class="cls-2" transform="translate(-77.48 -59.89)" d="M246.37,178.68l-14.54,3.89a.76.76,0,0,0-.59,1l.35,1.32a5.39,5.39,0,0,0,6.78,3.85,5.87,5.87,0,0,0,4.33-4.51,1.54,1.54,0,0,1,2.1-1l4,1a1.85,1.85,0,0,1,1,2.09c-.43,4-3,7.63-9.57,9.38-7.93,2.13-14.75-2.18-16.51-8.72l-2.91-10.86c-1.75-6.54,2-13.68,9.93-15.81s14.76,2.19,16.51,8.72l1.47,5.51A3,3,0,0,1,246.37,178.68Zm-7-7.5a5.55,5.55,0,0,0-10.72,2.87l.35,1.32a.76.76,0,0,0,1,.59l9.1-2.44a.75.75,0,0,0,.59-1Z"/>
<path class="cls-2" transform="translate(-77.48 -59.89)" d="m407.19 212-29.77 8a1.56 1.56 0 0 0-1.21 2.1l0.73 2.7a11 11 0 0 0 13.87 7.89c4.12-1.15 7.3-3.66 8.86-9.23 0.61-1.94 2.38-2.57 4.31-2l8.14 2c2.13 0.72 2.28 3.09 2.11 4.26-0.88 8.14-6.22 15.63-19.59 19.22-16.24 4.35-30.2-4.48-33.79-17.86l-6-22.25c-3.59-13.38 4.09-28 20.33-32.35s30.24 4.52 33.82 17.86l3 11.28c1.16 4.21-0.6 7.26-4.81 8.38zm-14.27-15.35a11.36 11.36 0 0 0-21.92 5.88l0.73 2.71a1.56 1.56 0 0 0 2.1 1.21l18.64-5a1.55 1.55 0 0 0 1.21-2.09z"/>
</svg>
