<svg width="65" height="87" viewBox="0 0 65 87" fill="none" xmlns="http://www.w3.org/2000/svg">
<path d="M7.73405 86.4424L4.90144 74.4436V86.4424H0.0637207V61.5854H4.86961V74.4436L7.60674 61.5854H12.2853L9.42089 74.4118L12.5399 86.4424H7.73405Z" fill="white"/>
<path d="M18.3643 86.4424V61.5854H28.9945V65.8184H23.6476V71.2609H27.1485V76.1623H23.6476V82.0821H28.9945V86.4424H18.3643Z" fill="white"/>
<path d="M12.6035 6.07898H0V56.7159H12.6035V6.07898Z" fill="#FBAD18"/>
<path d="M64.7999 11.2031H52.1964V56.7159H64.7999V11.2031Z" fill="#FBAD18"/>
<path d="M47.3906 0H34.7871V56.7159H47.3906V0Z" fill="#FBAD18"/>
<path d="M29.9812 19.701H17.3777V56.7159H29.9812V19.701Z" fill="#FBAD18"/>
<path d="M42.6801 86.4424L40.9933 78.6766L39.02 86.4424H34.4688L38.288 74.0935L34.787 61.5854H39.6247L41.2479 69.7968L43.1894 61.5854H47.7088L43.9851 73.457L47.6133 86.4424C47.5815 86.4424 42.6801 86.4424 42.6801 86.4424Z" fill="white"/>
<path d="M59.9941 77.0852H58.1163V86.4424H53.3104V61.5854H59.9941C62.5085 61.5854 64.7045 63.0813 64.7045 66.5505V72.1202C64.7045 75.5894 62.5085 77.0852 59.9941 77.0852ZM60.1851 66.7414C60.1851 65.9139 59.835 65.6275 59.3257 65.6275H58.1481V73.3933H59.3257C59.8668 73.3933 60.1851 73.1069 60.1851 72.3112V66.7414Z" fill="white"/>
</svg>
