<?xml version="1.0" encoding="utf-8"?>
<svg viewBox="0 0 208.557 67.828" xmlns="http://www.w3.org/2000/svg">
  <defs>
    <style>.cls-1{fill:#f30;}.cls-2{fill:#00a0ff;}</style>
  </defs>
  <g id="Layer_2" data-name="Layer 2">
    <g id="Layer_1-2" data-name="Layer 1">
      <path class="cls-1" d="M29.21,44.79c-.33-.49-2.29-3.26-3.1-3.26s-.82,1.79-.82,2.28c-.24,7.26,3.35,4.82,3.35,8.65,0,2.28-.58,5.63-13.3,5.63-6.69,0-14.28.24-14.28-5.14C1.06,49,5.39,51.89,5.63,45c.24-5.71.65-13.47.65-17.06V16.32C6.28,9.71,0,14.11,0,9.46,0,4,18.44,0,22.76,0,25,0,25.13,1.31,25.05,3.1l-.41,17.3c-.16,5.22-.16,7.26,1.8,7.26,1.3,0,6.52-2.78,6.52-4s-1.63-1.79-1.63-3.43c0-4.24,8.32-4.48,11.18-4.48,3.34,0,12.23.08,12.23,5.14,0,3.67-3,1.95-7.91,5-.81.41-4,2-4,3,0,2,9.55,13.79,11.1,15.67,3.67,4.57,8.16,4.48,8.16,7.91,0,2.53-1.88,4.73-8.16,4.73H42.42c-3.26,0-3.66-.16-5.63-2.69Z"/>
      <path class="cls-1" d="M82.9,39.57c0,3.26.25,8.32,4.65,8.32,5.88,0,5.06-7.67,5.06-11.58a62.94,62.94,0,0,0-.33-8.82c-.65-4.08-4.65-2.69-4.65-6.11,0-4.82,16.4-5.63,19.5-5.63,2.94,0,4.16,1.71,4.16,4.56,0,2.62-.16,5.14-.16,7.76V44.46c0,4.9,4.49,2.62,4.49,6.53,0,5.55-14.44,7.1-18.93,7.1-6.28,0-2.12-4.9-5.38-4.9-.9,0-2.21,1.23-4.17,2.45A14.78,14.78,0,0,1,79,58.09c-15.51,0-14.2-12.24-14.2-24.48,0-12.48-5.63-7-5.63-12.4,0-5.22,20.56-5.46,21.21-5.46,2.29,0,2.53,1.06,2.53,3.1Z"/>
      <path class="cls-1" d="M141.38,39.57c0,5.47,2.28,6.77,4.48,6.77,2.53,0,4-1.88,5.47-1.88,1.63,0,2.77,2.29,2.77,3.76,0,5.38-9.3,10.11-17.54,10.11-4.16,0-14.6-1.79-14.6-14.76V26.76c0-1.47,0-2-.41-2.28s-1.3-.09-3.18-.09c-2.12,0-3.18.09-3.59-.32-.57-.57-.41-1.39-.41-3.27,0-1.14-.24-2,.73-2.69L133.71,6.28c1.87-1.14,1.79-.89,4.24-.89,3.26,0,3.43-.33,3.43,3.42,0,2.53-.17,5.06.24,6,.24.65.82.65,2.94.65h5.71c3.5,0,3.5.25,3.5,3.92,0,4.65-.57,5-3.75,5h-5.63c-2.85,0-3,.09-3,3Z"/>
      <path class="cls-1" d="M201.05,46.34c3.92,5.06,6.69,3.35,6.69,6.69,0,2.12-.08,5.06-16.4,5.06-3.51,0-13.71.73-13.71-4.65,0-2.94,3.35-2,3.35-4.57,0-1.55-2.85-6.2-4.4-6.2s-4.9,5.87-4.9,7.51,1.88,1.79,1.88,4.32c0,3.51-6.28,3.59-8.73,3.59-2.86,0-8.65,0-8.65-4,0-4.24,3.92-.73,7.67-6.77l6.61-10.77a5.45,5.45,0,0,0,1-1.79c0-.58-1-1.47-1.22-1.8L165,26.52c-2.94-3.68-7.83-1.8-7.83-5.8,0-5.22,14-5,17.54-5,2.77,0,12.89-.41,12.89,4.08,0,1.71-1.63,2.77-1.63,4,0,1,2.28,4.33,3.26,4.33,1.14,0,3.67-3.67,3.67-4.74s-1.71-2.44-1.71-3.83c0-3.83,6.12-3.83,8.65-3.83,6.36,0,7.67,1.79,7.67,3.91,0,2.94-4.65,2.86-6.94,6.2l-4.65,6.77c-.32.41-2,2.53-2,3.1s1.39,2.29,1.55,2.62Z"/>
    </g>
  </g>
</svg>