<svg xmlns="http://www.w3.org/2000/svg" xmlns:xlink="http://www.w3.org/1999/xlink" viewBox="0 0 210 89"><defs><path id="a" d="M0 .339h40.722v64.992H0z"/><path id="c" d="M.206.905h42.276v65.178H.206z"/></defs><g fill="none" fill-rule="evenodd"><path fill="#FFF" fill-rule="nonzero" d="M6.81 84.36V69.126h6.864c1.597.021 3.582.043 4.985 1.553.712.799 1.208 2.007 1.208 3.389 0 3.064-2.093 3.82-3.129 4.208l3.518 6.086h-4.208l-3.022-5.439h-2.395v5.439H6.81zm7.058-12.387H10.63v4.122h3.15c.54-.021 2.288-.065 2.288-2.093 0-1.942-1.403-2.007-2.201-2.029zm16.272 8.244l2.503 1.273c-.388.583-.777 1.144-1.36 1.684-.97.906-2.438 1.597-4.25 1.597-3.346 0-5.698-2.137-5.698-5.827 0-2.72 1.338-6.215 5.784-6.215.669 0 2.61.064 4.057 1.618 1.467 1.576 1.554 3.777 1.597 5.05h-8.05c-.021 1.403.777 2.806 2.568 2.806 1.813 0 2.439-1.187 2.849-1.986zm-5.395-2.892h4.596c-.064-.474-.15-1.1-.625-1.597-.41-.41-1.036-.626-1.619-.626-.798 0-1.36.389-1.683.734-.453.497-.561 1.015-.67 1.49zm13.229-1.036H34.65c.065-.776.173-1.704 1.187-2.503 1.036-.82 2.374-.993 3.69-.993 1.382 0 4.727.324 4.727 3.237v6.561c0 1.209.065 1.381.324 1.77h-3.259v-1.036c-.842.626-1.791 1.338-3.453 1.338-2.59 0-3.69-1.856-3.69-3.432 0-1.812 1.446-2.848 2.374-3.237.906-.388 3.042-.777 4.445-1.036v-.604c-.043-.518-.086-1.381-1.273-1.381-1.468 0-1.662.906-1.748 1.316zm3.021 2.676l-2.136.713c-.561.215-1.425.54-1.425 1.402 0 .54.475 1.144 1.252 1.144.41 0 .799-.15 1.144-.367 1.1-.69 1.144-1.726 1.165-2.892zm6.28-9.84H50.6V84.36h-3.324V69.125zm22.38 10.229l3 1.532c-.562.885-1.101 1.748-2.31 2.59a7.422 7.422 0 0 1-4.251 1.338c-4.036 0-7.294-2.935-7.294-8.093 0-4.51 3.064-8.071 7.38-8.071 1.748 0 3.302.604 4.446 1.51 1.057.842 1.554 1.684 1.985 2.44l-3.02 1.51c-.217-.497-.476-1.015-1.145-1.576-.733-.582-1.467-.755-2.093-.755-2.46 0-3.755 2.288-3.755 4.834 0 3.345 1.705 5.007 3.755 5.007 1.985 0 2.784-1.381 3.302-2.266zm10.337-6.604c4.597.26 5.611 3.906 5.611 5.957 0 2.848-1.64 5.977-6.042 5.977-3.173 0-6.065-1.812-6.065-5.977 0-3.453 2.18-6.194 6.496-5.957zm-.626 2.633c-.95.065-1.51.388-1.964 1.1-.41.648-.56 1.425-.56 2.202 0 1.791.863 3.367 2.719 3.367 1.79 0 2.676-1.446 2.676-3.216 0-1.252-.303-2.223-.928-2.827-.691-.648-1.468-.67-1.943-.626zm8.395-6.258h3.324V84.36H87.76V69.125zm6.302 0h3.323V84.36h-3.323V69.125zm14.33 11.092l2.503 1.273c-.388.583-.777 1.144-1.36 1.684-.97.906-2.438 1.597-4.25 1.597-3.346 0-5.698-2.137-5.698-5.827 0-2.72 1.338-6.215 5.783-6.215.67 0 2.612.064 4.058 1.618 1.467 1.576 1.554 3.777 1.597 5.05h-8.05c-.022 1.403.777 2.806 2.568 2.806 1.813 0 2.439-1.187 2.849-1.986zm-5.395-2.892h4.596c-.064-.474-.15-1.1-.626-1.597-.41-.41-1.035-.626-1.618-.626-.799 0-1.36.389-1.683.734-.454.497-.562 1.015-.67 1.49zm16.79 6.755v-1.208c-.648.431-1.446.95-2.979.95-.928 0-1.834-.238-2.568-.735-1.51-.97-2.093-2.719-2.093-4.661 0-2.266 1.057-5.525 4.79-5.525 1.727 0 2.526.756 3.022 1.23v-1.057h3.108v10.834c-.043 1.23-.086 2.676-1.727 3.625-1.143.69-2.827.863-3.841.863-2.244 0-3.712-.777-4.316-1.402-.885-.885-.863-2.029-.863-2.633h3.43c.044.496.087 1.208.972 1.618.216.108.54.216 1.058.216 2.007 0 2.007-1.187 2.007-2.115zm-2.245-8.697c-1.575.065-1.964 1.424-1.964 3.021 0 .95.065 2.914 2.115 2.914 1.684 0 2.072-1.317 2.072-2.914 0-.54-.043-1.661-.41-2.2-.259-.41-.863-.864-1.813-.821zm16.466 4.834l2.504 1.273c-.389.583-.777 1.144-1.36 1.684-.97.906-2.438 1.597-4.251 1.597-3.345 0-5.698-2.137-5.698-5.827 0-2.72 1.338-6.215 5.784-6.215.67 0 2.611.064 4.057 1.618 1.468 1.576 1.554 3.777 1.597 5.05h-8.05c-.021 1.403.778 2.806 2.569 2.806 1.813 0 2.438-1.187 2.848-1.986zm-5.395-2.892h4.597c-.065-.474-.151-1.1-.626-1.597-.41-.41-1.036-.626-1.618-.626-.799 0-1.36.389-1.684.734-.453.497-.56 1.015-.669 1.49zm15.776 7.036V69.125h6.863c1.597.021 3.582.043 4.985 1.553.712.799 1.208 2.007 1.208 3.389 0 3.064-2.093 3.82-3.129 4.208l3.518 6.086h-4.208l-3.022-5.439h-2.395v5.439h-3.82zm7.057-12.388h-3.237v4.122h3.15c.54-.021 2.288-.065 2.288-2.093 0-1.942-1.403-2.007-2.201-2.029zm11.524 4.316h-3.323c.064-.776.172-1.704 1.187-2.503 1.036-.82 2.374-.993 3.69-.993 1.381 0 4.726.324 4.726 3.237v6.561c0 1.209.065 1.381.324 1.77h-3.259v-1.036c-.841.626-1.791 1.338-3.453 1.338-2.59 0-3.69-1.856-3.69-3.432 0-1.812 1.446-2.848 2.374-3.237.906-.388 3.043-.777 4.446-1.036v-.604c-.044-.518-.087-1.381-1.274-1.381-1.467 0-1.661.906-1.748 1.316zm3.022 2.676l-2.137.713c-.561.215-1.424.54-1.424 1.402 0 .54.474 1.144 1.251 1.144.41 0 .799-.15 1.144-.367 1.1-.69 1.144-1.726 1.166-2.892zm13.164-9.84h3.216V84.36h-3.022v-1.058c-.518.518-1.381 1.36-3.043 1.36a4.567 4.567 0 0 1-3.172-1.295c-1.64-1.575-1.64-3.841-1.64-4.575 0-4.252 2.417-6 4.683-6 1.489 0 2.374.69 2.978 1.144v-4.812zm-1.1 12.754c1.165-.799 1.165-2.525 1.165-3.15 0-.519 0-1.922-.712-2.785-.152-.194-.626-.669-1.295-.669-2.353 0-2.353 2.957-2.353 3.453 0 1.576.432 3.496 2.115 3.496.367 0 .756-.13 1.08-.345zm7.294-10.208v-2.568h3.28v2.568h-3.28zm0 12.69V73.074h3.28V84.36h-3.28zm11.977-11.61c4.597.258 5.611 3.905 5.611 5.956 0 2.848-1.64 5.977-6.042 5.977-3.173 0-6.065-1.812-6.065-5.977 0-3.453 2.18-6.194 6.496-5.957zm-.626 2.632c-.95.065-1.51.388-1.964 1.1-.41.648-.56 1.425-.56 2.202 0 1.791.863 3.367 2.719 3.367 1.79 0 2.676-1.446 2.676-3.216 0-1.252-.303-2.223-.928-2.827-.691-.648-1.468-.67-1.943-.626z"/><path fill="#FFF" d="M124.119 4.41c-2.125-1.013-10.858-.78-14.124 1.738-1.661 1.276-.165 52.929 1.04 54.193 1.509 1.818 9.81-.805 11.488-2.723.876-1.067 2.564-52.464 1.596-53.207M52.43 39.513c-.033 0-.071 0-.105.005.379-4.484 2.487-13.75 3.646-17.36 1.278 2.457 3.094 13.93 3.579 17.325-1.467.096-5.652-.064-7.12.03M60.807.86C60.51.753 53.39 2.064 51.86 2.424c-1.23 4.158-15.24 46.748-14.74 50.441 3.666 7.123 9.642 9.954 9.938 9.795.634-.362 3.017-13.91 3.628-15.076 2.293.437 6.885.967 9.173 1.407.427.86 1.307 11.743 1.051 13.116 4.177.888 12.904.483 12.945.481C73.558 56.306 62.864 9.494 60.806.86M87.318 47.694c-.032 0 .432-23.833.197-30.412 12.74 8.918 6.137 25.674-.197 30.412M94.626 5.54C85.336.59 72.812 3.823 72.753 3.895c-.816 4.08 3.153 52.652 4.155 58.324.063.035 22.79-.03 28.185-20.097 4.435-16.496-1.273-31.685-10.467-36.582"/><g transform="translate(.625 .13)"><mask id="b" fill="#fff"><use xlink:href="#a"/></mask><path fill="#FFF" d="M13.638 34.89c-.3-5.079-1.858-19.876-2.146-22.021.277.044 15.435.238 15.085 11.162-.185 5.69-8.15 11.306-12.939 10.86m15.616 6.347c10.583-4.086 12.055-17.251 7.972-28.05C33.258 2.693 19.1-1.648.389 1.189c-1.354 2.037 1.34 52.491.435 63.301.042.23.402.382.631.369 5.811-.757 12.402-3.114 13.563-4.05.644-.597-.41-14.496-.794-18.075 1.316 1.408 6.955 8.28 10.086 11.625 6.388 6.837 9.55 9.193 14.84 10.843 1.1.316 1.73.04 1.538-.647-.094-.642-7.041-8.995-11.434-23.316" mask="url(#b)"/></g><path fill="#FFF" d="M144.059 49.409c-4.614.746-4.766-17.68-4.769-17.672-.063-4.084.99-12.684 4.21-13.305 5.653-.158 4.788 29.953.559 30.977m3.066-45.065C142.32 1.737 132.5.84 127.987 21.311c-1.812 10.483.14 26.684 3.713 33.907 6.444 13.025 17.775 10.497 22.589.752 3.664-7.419 4.658-17.038 4.598-23.438-.124-13.259-5.167-24.606-11.762-28.188"/><g transform="translate(167.57 .13)"><mask id="d" fill="#fff"><use xlink:href="#c"/></mask><path fill="#FFF" d="M20.7 40.325c-.063.007 18.155-15.583 18.583-18.357.362-2.254-6.915-19.056-7.889-19.148-1.751 2.151-14.826 34.06-16.43 35.362 1.024-7.056 4.763-28.146 3.996-30.848C18.477 5.606 5.804.257 3.225.97 2.906 2.625.365 60.504.205 65.563c.726.213 10.505-3.506 11.294-4.85.465-.792 1.978-10.27 2.229-13.26.03 0 12.49 17.29 13.804 18.628.618.159 14.891-8.834 14.95-9.024-.308-2.445-20.632-16.455-21.781-16.732" mask="url(#d)"/></g><path fill="#1ABEDA" d="M26.994 5.618c5.305 2.667 9.345 5.814 11.2 15.085-2.128-5.657-4.54-9.742-11.601-13.17-6.79-3.294-11.32-3.286-19.419-4.385 6.297-1.354 15.648.372 19.82 2.47M9.2 12.445c.93 1.499 2.212 16.84 1.761 22.05-.08-.06-3.08-14.49-1.76-22.05M32.136 28.699c-.133 1.966-4.068 7.014-8.59 8.203-1.493.394-6.348 1.338-8.663.125 4.997-.67 12.303-1.843 17.253-8.328M25.82 43.112c3.328 5.508 10.595 16.936 11.76 19.513-.029-.007-10.395-10.784-11.76-19.513M11.709 41.903c1.08 3.627 1.436 8.535 1.028 13.106-1.23-.967-1.353-10.771-1.028-13.106M53.495 4.312c-.257-.821 4.762-1.939 5.404-1.623.64.313 5.22 21.417 6.184 27.124.96 5.708 4.624 23.565 4.074 23.775-.55.209-5.723-24.35-6.78-29.063-1.052-4.713-3.983-18.905-4.349-19.533-.366-.629-4.306.052-4.533-.68M59.723 41.333c0-.481-7.374-.314-7.465.263-.092.576 7.465 1.57 7.465-.263M52.075 8.082c-.582-.148-9.343 29.168-9.343 31.42 0 2.25 10.58-31.106 9.343-31.42M77.912 5.515c.56-.736 8.036-.934 13.493 1.326 5.46 2.259 9.382 8.701 9.112 8.451-3.868-3.537-9.011-7.746-15.672-8.383-6.662-.64-6.933-1.394-6.933-1.394M88.167 50.308c-.028.65 3.664.013 6.347-5.08 1.947-3.693 3.17-10.143 2.925-10.344-.243-.2-2.51 7.601-4.342 10.484-1.76 2.764-4.889 4.043-4.93 4.94M78.313 17.455c-.838-.426.917 23.981 1.948 25.816 1.03 1.835-.918-25.291-1.948-25.816M123.413 6c-.051-.49-12.21.14-12.556 1.223-.348 1.084 12.617-.648 12.556-1.223M110.602 10.986c-.492-.173.05 40.117.992 40.078.94-.046-.254-39.816-.992-40.078M121.196 56.8c-.592.257.407-13.96.831-14.239.423-.28.536 13.646-.83 14.24M135.031 10.474c-.233-1.963 4.141-5.59 8.07-5.003 3.14.47 6.568 3.614 7.592 6.64-.915.141-3.704-5.531-9.766-4.794-3.385.41-5.896 3.157-5.896 3.157M150.83 31.312c-.599-.529-.02 11.024-1.89 16.342-1.298 3.674-2.756 4.863-4.453 5.47-2.575.918 1.853 1.565 4.12-1.147 4.203-5.03 3.22-19.778 2.224-20.665M137.336 46.346c.248-.547 4.085 4.9 3.498 5.668-.592.765-3.85-4.905-3.498-5.668M173.03 4.667c.1-.52 11.805 2.623 11.41 3.89-.397 1.265-11.616-2.807-11.41-3.89M172.945 11.991c.96-.273-.588 41.373-1.917 41.203-.684-.088 1.141-40.98 1.917-41.203M198.76 9.86c-.77-.562-7.015 14.392-9.21 18.768-2.202 4.373-3.199 7.142-3.042 7.224.154.082 6.938-11.76 8.75-15.239 1.815-3.48 3.92-10.446 3.502-10.753M206.827 56.63c-.646 1.371-9.459-5.722-13.582-9.452-4.124-3.727 14.255 8.02 13.582 9.452"/></g></svg>