<?xml version="1.0" encoding="UTF-8" standalone="no"?>
<svg
   version="1.0"
   width="636.5918pt"
   height="199.26709pt"
   viewBox="0 0 636.59179 199.26709"
   preserveAspectRatio="xMidYMid"
   id="svg4186"
   inkscape:version="1.4.2 (ebf0e940d0, 2025-05-08)"
   sodipodi:docname="wfmu-logo.svg"
   xmlns:inkscape="http://www.inkscape.org/namespaces/inkscape"
   xmlns:sodipodi="http://sodipodi.sourceforge.net/DTD/sodipodi-0.dtd"
   xmlns="http://www.w3.org/2000/svg"
   xmlns:svg="http://www.w3.org/2000/svg"
   xmlns:rdf="http://www.w3.org/1999/02/22-rdf-syntax-ns#"
   xmlns:cc="http://creativecommons.org/ns#"
   xmlns:dc="http://purl.org/dc/elements/1.1/">
  <defs
     id="defs4196" />
  <sodipodi:namedview
     pagecolor="#ffffff"
     bordercolor="#666666"
     borderopacity="1"
     objecttolerance="10"
     gridtolerance="10"
     guidetolerance="10"
     inkscape:pageopacity="0"
     inkscape:pageshadow="2"
     inkscape:window-width="2254"
     inkscape:window-height="1481"
     id="namedview4194"
     showgrid="false"
     inkscape:zoom="1.3324097"
     inkscape:cx="488.21319"
     inkscape:cy="141.09774"
     inkscape:window-x="0"
     inkscape:window-y="21"
     inkscape:window-maximized="1"
     inkscape:current-layer="svg4186"
     fit-margin-top="0"
     fit-margin-left="0"
     fit-margin-right="0"
     fit-margin-bottom="0"
     inkscape:showpageshadow="2"
     inkscape:pagecheckerboard="true"
     inkscape:deskcolor="#d1d1d1"
     inkscape:document-units="pt" />
  <metadata
     id="metadata4188">
Created by potrace 1.13, written by Peter Selinger 2001-2015
<rdf:RDF>
  <cc:Work
     rdf:about="">
    <dc:format>image/svg+xml</dc:format>
    <dc:type
       rdf:resource="http://purl.org/dc/dcmitype/StillImage" />
  </cc:Work>
</rdf:RDF>
</metadata>
  <path
     style="fill:#ffffff;stroke:none;stroke-width:39.7401;stroke-linecap:round;stroke-linejoin:round;stroke-miterlimit:4;stroke-dasharray:none;stroke-opacity:1"
     d="m 541.82997,33.096166 c -22.39059,0.528286 -44.88665,3.460437 -67.08501,0.794245 -45.35842,-1.535341 -90.36894,5.149217 -135.60562,2.764674 -78.76998,-1.028518 -157.57865,0.05579 -236.22872,3.085643 -23.730951,0.998433 -47.7391,1.005193 -71.148654,3.982254 -15.015949,2.081495 -21.79225,12.900405 -23.146275,22.050309 -3.516569,23.578872 -2.811249,47.780539 7.413182,70.624479 3.307703,9.74141 9.887981,20.43224 24.875469,24.44277 19.627211,5.93702 41.846428,6.25603 63.045938,5.99028 22.47911,-1.02175 44.85811,-2.48916 67.40556,-2.03243 83.3146,-0.30346 166.66499,0.64411 249.95266,-0.99737 40.57628,-1.6134 80.81057,-5.38572 121.42086,-6.27368 19.33079,-0.70234 41.50606,-2.38279 54.59414,-13.03509 14.50947,-10.93466 19.14957,-26.12869 18.35986,-40.29847 2.16689,-12.609012 5.83873,-26.006675 -2.02559,-38.110523 -2.96541,-8.135299 -7.80252,-16.674632 -18.9537,-21.37872 -14.89015,-7.798531 -33.98509,-11.755062 -52.8741,-11.608371 z"
     id="path4192-5"
     inkscape:connector-curvature="0" />
  <path
     inkscape:connector-curvature="0"
     style="fill:#000000;stroke:none;stroke-width:52;stroke-linecap:round;stroke-linejoin:round;stroke-miterlimit:4;stroke-dasharray:none;stroke-opacity:1"
     id="path4192"
     d="m 537.82253,1.6674882 c -16.2,1.8000004 -20,1.9000004 -30,1.0000004 -27.5,-2.70000039 -46,-2.50000039 -86,1.1 -28.6,2.5 -39.8,3.1 -47,2.6 -9.5,-0.7 -39,-1.1 -103.5,-1.2 -42.8,-0.1 -95.3,1.1 -111,2.5 -6.6,0.599999 -16.9,0.999999 -23,0.899999 -6,-0.1 -15.5,0.3 -21,0.9 -5.5,0.6000004 -18.500003,1.3000004 -29.000004,1.6000004 -10.4,0.2 -25.7,1.1 -34,1.8 -8.2,0.8 -18.6,1.8 -23,2.1 -8,0.6 -15.2,3 -18.8,6.3 -2.6,2.3 -6.700001,10.6 -8.400001,16.7 -1.8999996,7.2 -3.59999958,41.3 -2.99999958,59.500005 0.3,8.499997 1.49999998,20.699997 2.59999958,26.999997 2.8,15.9 9.400001,41.8 12.400001,48.4 7.6,16.5 22.2,22.9 58.7,25.7 14,1.1 17.4,1 36.000004,-1 19.9,-2.1 24.3,-2.1 161.5,-2.2 158.3,-0.1 166,-0.3 214,-6 9.4,-1.1 35.1,-3 57.2,-4.3 22.6,-1.3 40.8,-2.7 41.5,-3.3 0.7,-0.6 3.5,-1.4 6.3,-1.8 11.4,-1.6 19.9,-7 28.1,-17.8 9.5,-12.7 14.4,-28 14.4,-45.4 0,-5.6 0.9,-17.499997 2.1,-26.500002 1.2,-9.3 1.9,-19 1.6,-22.6 -0.3,-3.7 -2.7,-13.3 -5.8,-23 l -5.4,-16.7 -7.1,-7.1 c -5.6,-5.6 -9.2,-8.2 -16.5,-11.8000004 -18.6,-9.09999939 -33.4,-10.8999994 -63.9,-7.3999994 z m -150.5,49.1999998 c 6.3,1.6 12.4,4.7 14.9,7.5 2.2,2.4 4.2,2.7 4.9,0.8 0.7,-1.8 8.6,-5.9 15.6,-8.2 7.9,-2.6 25.1,-1.6 32.8,2 8.7,3.9 12.6,7.7 16.6,15.7 4.2,8.2 4.2,8.3 5.2,57.900002 0.4,19.5 0.3,22.8 -1,23.9 -1.3,1.1 -13.4,1.6 -24.1,1.1 -1.7,-0.1 -2.5,-10 -3,-35.1 -0.5,-30.300002 -1.7,-36.300002 -7.7,-40.300002 -3.3,-2.1 -10,-2.8 -13.8,-1.6 -3.6,1.2 -8.3,5.1 -10.2,8.4 -0.8,1.4 -1.4,12.700005 -1.7,35.500002 l -0.5,33.5 -6.5,0.5 c -10,0.8 -16.8,0.1 -17.5,-1.8 -0.3,-0.8 -0.8,-15.7 -1.1,-33.1 -0.6,-35.300002 -0.9,-36.900002 -7.4,-40.300002 -7.5,-3.9 -17.5,-1.2 -22.1,5.9 -5.7,8.8 -5.4,6.6 -5.4,39.800002 v 31 l -11.3,0.1 c -7,0 -11.6,-0.3 -12.1,-1 -0.5,-0.6 -1.1,-22.8 -1.3,-50.6 l -0.3,-49.500002 2.5,-0.1 c 18.8,-1 21.3,-0.9 22.4,1.1 0.6,1.1 1.2,2.2 1.3,2.4 0.2,0.2 1,-0.2 1.8,-0.9 2.9,-2.4 13.9,-5.8 19,-5.9 2.8,0 7.3,0.5 10,1.3 z m -323.600004,1.1 c 0.7,0.4 1.1,11.1 1,32.6 0,28.900002 0.1,32.300002 1.8,35.600002 2.3,4.7 7.2,7.4 14.3,8 6.3,0.5 11.400001,-1.9 13.000001,-6.2 1,-2.7 1.7,-14.9 2.5,-48.000002 0.4,-12.1 0.8,-22.2 1.1,-22.4 1.1,-1.1 22.900003,0 23.600003,1.2 0.5,0.7 0.7,15.1 0.6,32.2 -0.2,29.900002 -0.1,31.100002 2,35.100002 1.1,2.3 3.5,5.3 5.2,6.8 2.7,2.2 4.1,2.6 9.4,2.6 5.6,0 6.6,-0.3 9.4,-2.9 5.1,-5 6.3,-13 6.3,-43.000002 0,-14.1 -0.3,-26.8 -0.7,-28.3 -0.9,-3.8 1.6,-4.6 15.2,-4.7 8.8,-0.1 11.4,0.2 12.4,1.3 2,2.6 0.8,62.800002 -1.5,72.600002 -3.2,13.5 -7.2,19.9 -15.9,25.9 -4.8,3.3 -9.1,4.7 -16.6,5.6 -3,0.3 -6.2,0.7 -7,0.8 -6.7,0.7 -21.7,-3.2 -26.8,-7 l -3.3,-2.5 -2.2,2 c -4.5,4.1 -20.700004,7.4 -32.100004,6.5 -16.2,-1.2 -32.9,-11.1 -35.6,-21.1 -2.1,-7.9 -2.9,-24.5 -2.6,-53.700002 0.2,-16.5 0.4,-30 0.5,-30 11.8,0 25.2,0.5 26,1 z m 462.000004,1.1 c 0.4,0.5 0.4,5.2 0.1,10.4 -0.4,5.2 -0.6,20.5 -0.6,34.000005 0.1,22.599997 0.3,24.799997 2.1,28.399997 6.4,12.1 25.7,10.8 34.7,-2.5 l 3.7,-5.4 0.3,-31.800002 c 0.3,-26.9 0.5,-31.9 1.8,-32.7 1.8,-1.2 21,-1.3 22.8,-0.1 1.8,1.1 1.3,86.400002 -0.5,88.200002 -0.7,0.7 -3.4,1.3 -6,1.4 -2.6,0.2 -5.2,0.3 -5.6,0.4 -0.4,0 -2.9,2.1 -5.6,4.6 -15.9,14.8 -45.6,14.9 -60.3,0.2 -10.1,-10.1 -11.5,-17.6 -11.7,-61.700002 -0.1,-17.4 0.1,-32.2 0.4,-33 0.4,-1.2 2.8,-1.5 12,-1.4 6.4,0 11.9,0.5 12.4,1 z m -226.4,0.8 c 1.5,1.1 1.8,2.7 1.8,10.2 0,11.5 -1.1,13.7 -6.1,12.9 -3.8,-0.6 -43.2,-0.9 -43.6,-0.3 -0.1,0.1 0.1,8.1 0.4,17.700005 l 0.5,17.299997 24.5,0.2 24.5,0.1 0.3,9.9 c 0.2,6.3 -0.1,10.3 -0.9,11.2 -0.9,1.1 -5.7,1.4 -23.9,1.4 -12.4,-0.1 -23.3,0.2 -24.1,0.5 -1.1,0.4 -1.3,2.4 -1,9 0.2,5.8 -0.1,9 -0.9,10 -1,1.2 -3.9,1.5 -13,1.5 h -11.8 l -0.7,-3.2 c -0.4,-1.7 -0.8,-6.3 -0.9,-10.2 l -0.2,-7.1 -8.7,-0.3 c -5.7,-0.2 -9,-0.7 -9.3,-1.5 -0.8,-2.2 -1,-19.8 -0.2,-20.3 0.4,-0.3 4.6,-0.5 9.3,-0.5 l 8.5,-0.1 0.2,-20.199997 c 0.2,-11.000005 0.3,-23.800005 0.3,-28.300005 0,-8.4 0.5,-9.7 4,-10.6 1.1,-0.3 17.1,-0.5 35.6,-0.6 26.7,-0.1 33.9,0.2 35.4,1.3 z" />
</svg>
